<mxfile host="app.diagrams.net" agent="Mozilla/5.0 (Macintosh; Intel Mac OS X 10_15_7) AppleWebKit/537.36 (KHTML, like Gecko) Chrome/132.0.0.0 Safari/537.36" version="26.0.16">
  <diagram name="Page-1" id="3_VvUqannGxVyeXy2eC9">
    <mxGraphModel dx="2954" dy="1121" grid="1" gridSize="10" guides="1" tooltips="1" connect="1" arrows="1" fold="1" page="1" pageScale="1" pageWidth="850" pageHeight="1100" math="0" shadow="0">
      <root>
        <mxCell id="0" />
        <mxCell id="1" parent="0" />
        <mxCell id="Z5M3dG_AKnjKkWwOg935-24" value="" style="rounded=0;whiteSpace=wrap;html=1;" vertex="1" parent="1">
          <mxGeometry x="410" y="660" width="380" height="110" as="geometry" />
        </mxCell>
        <mxCell id="Z5M3dG_AKnjKkWwOg935-22" value="" style="rounded=0;whiteSpace=wrap;html=1;" vertex="1" parent="1">
          <mxGeometry x="425" y="420" width="355" height="210" as="geometry" />
        </mxCell>
        <mxCell id="Z5M3dG_AKnjKkWwOg935-20" value="" style="whiteSpace=wrap;html=1;aspect=fixed;" vertex="1" parent="1">
          <mxGeometry x="40" y="390" width="300" height="300" as="geometry" />
        </mxCell>
        <mxCell id="Z5M3dG_AKnjKkWwOg935-1" value="Arquitectura AWS" style="text;html=1;align=center;verticalAlign=middle;whiteSpace=wrap;rounded=0;" vertex="1" parent="1">
          <mxGeometry x="340" y="210" width="120" height="50" as="geometry" />
        </mxCell>
        <mxCell id="Z5M3dG_AKnjKkWwOg935-8" style="edgeStyle=orthogonalEdgeStyle;rounded=0;orthogonalLoop=1;jettySize=auto;html=1;" edge="1" parent="1" source="Z5M3dG_AKnjKkWwOg935-2" target="Z5M3dG_AKnjKkWwOg935-5">
          <mxGeometry relative="1" as="geometry" />
        </mxCell>
        <mxCell id="Z5M3dG_AKnjKkWwOg935-11" style="edgeStyle=orthogonalEdgeStyle;rounded=0;orthogonalLoop=1;jettySize=auto;html=1;entryX=0.5;entryY=0;entryDx=0;entryDy=0;" edge="1" parent="1" source="Z5M3dG_AKnjKkWwOg935-2" target="Z5M3dG_AKnjKkWwOg935-10">
          <mxGeometry relative="1" as="geometry" />
        </mxCell>
        <mxCell id="Z5M3dG_AKnjKkWwOg935-2" value="USUARIOS" style="shape=umlActor;verticalLabelPosition=bottom;verticalAlign=top;html=1;outlineConnect=0;" vertex="1" parent="1">
          <mxGeometry x="385" y="310" width="30" height="60" as="geometry" />
        </mxCell>
        <mxCell id="Z5M3dG_AKnjKkWwOg935-7" style="edgeStyle=orthogonalEdgeStyle;rounded=0;orthogonalLoop=1;jettySize=auto;html=1;entryX=0.5;entryY=0;entryDx=0;entryDy=0;" edge="1" parent="1" source="Z5M3dG_AKnjKkWwOg935-5" target="Z5M3dG_AKnjKkWwOg935-6">
          <mxGeometry relative="1" as="geometry" />
        </mxCell>
        <mxCell id="Z5M3dG_AKnjKkWwOg935-5" value="CLOUDFRONT&lt;div&gt;(CDN)&lt;/div&gt;" style="rounded=0;whiteSpace=wrap;html=1;" vertex="1" parent="1">
          <mxGeometry x="120" y="430" width="120" height="60" as="geometry" />
        </mxCell>
        <mxCell id="Z5M3dG_AKnjKkWwOg935-6" value="S3&lt;div&gt;FRONTEND HOSTING&lt;/div&gt;" style="ellipse;whiteSpace=wrap;html=1;" vertex="1" parent="1">
          <mxGeometry x="120" y="550" width="120" height="80" as="geometry" />
        </mxCell>
        <mxCell id="Z5M3dG_AKnjKkWwOg935-17" style="edgeStyle=orthogonalEdgeStyle;rounded=0;orthogonalLoop=1;jettySize=auto;html=1;entryX=0.5;entryY=0;entryDx=0;entryDy=0;" edge="1" parent="1" source="Z5M3dG_AKnjKkWwOg935-10" target="Z5M3dG_AKnjKkWwOg935-12">
          <mxGeometry relative="1" as="geometry" />
        </mxCell>
        <mxCell id="Z5M3dG_AKnjKkWwOg935-10" value="API GATEWAY" style="rounded=0;whiteSpace=wrap;html=1;" vertex="1" parent="1">
          <mxGeometry x="540" y="430" width="120" height="60" as="geometry" />
        </mxCell>
        <mxCell id="Z5M3dG_AKnjKkWwOg935-12" value="LAMBDA&lt;div&gt;BACKEND&lt;/div&gt;" style="ellipse;whiteSpace=wrap;html=1;" vertex="1" parent="1">
          <mxGeometry x="540" y="550" width="120" height="80" as="geometry" />
        </mxCell>
        <mxCell id="Z5M3dG_AKnjKkWwOg935-13" value="STORAGE&lt;div&gt;S3&lt;/div&gt;" style="shape=cylinder3;whiteSpace=wrap;html=1;boundedLbl=1;backgroundOutline=1;size=15;" vertex="1" parent="1">
          <mxGeometry x="440" y="670" width="60" height="80" as="geometry" />
        </mxCell>
        <mxCell id="Z5M3dG_AKnjKkWwOg935-14" value="RDS&lt;div&gt;DATABASE&lt;/div&gt;" style="shape=cylinder3;whiteSpace=wrap;html=1;boundedLbl=1;backgroundOutline=1;size=15;" vertex="1" parent="1">
          <mxGeometry x="670" y="670" width="60" height="80" as="geometry" />
        </mxCell>
        <mxCell id="Z5M3dG_AKnjKkWwOg935-15" style="edgeStyle=orthogonalEdgeStyle;rounded=0;orthogonalLoop=1;jettySize=auto;html=1;entryX=0.855;entryY=0;entryDx=0;entryDy=4.35;entryPerimeter=0;" edge="1" parent="1" source="Z5M3dG_AKnjKkWwOg935-12" target="Z5M3dG_AKnjKkWwOg935-13">
          <mxGeometry relative="1" as="geometry" />
        </mxCell>
        <mxCell id="Z5M3dG_AKnjKkWwOg935-16" style="edgeStyle=orthogonalEdgeStyle;rounded=0;orthogonalLoop=1;jettySize=auto;html=1;entryX=0.5;entryY=0;entryDx=0;entryDy=0;entryPerimeter=0;" edge="1" parent="1" source="Z5M3dG_AKnjKkWwOg935-12" target="Z5M3dG_AKnjKkWwOg935-14">
          <mxGeometry relative="1" as="geometry" />
        </mxCell>
        <mxCell id="Z5M3dG_AKnjKkWwOg935-21" value="S3 permitirá alojar aplkicaciones web, con alto consumo de forma estático y altamente disponible&lt;div&gt;CloudFront permitira reducir la latencia ya que utiliza cache redistribuido para un acceso en menor tiempo.&lt;/div&gt;" style="text;html=1;align=center;verticalAlign=middle;whiteSpace=wrap;rounded=0;" vertex="1" parent="1">
          <mxGeometry x="40" y="695" width="300" height="135" as="geometry" />
        </mxCell>
        <mxCell id="Z5M3dG_AKnjKkWwOg935-23" value="La aplicación de API Gateway y Lamba permitira eliminar la administración de servidores, permitiendo escalabilidad automatica a menor costo. lambda ejecuta comandos y funciones solo al requerirlo optimizando el uso de los recursos" style="text;html=1;align=center;verticalAlign=middle;whiteSpace=wrap;rounded=0;" vertex="1" parent="1">
          <mxGeometry x="630" y="310" width="190" height="85" as="geometry" />
        </mxCell>
        <mxCell id="Z5M3dG_AKnjKkWwOg935-25" value="RDS Database: Permite manejar datos estructurados con alta disponibilidad&lt;div&gt;Storage S3: Permite almacenar imagenes y contenidos estáticos de manera prolongada.&lt;/div&gt;" style="text;html=1;align=center;verticalAlign=middle;whiteSpace=wrap;rounded=0;" vertex="1" parent="1">
          <mxGeometry x="450" y="790" width="300" height="90" as="geometry" />
        </mxCell>
        <mxCell id="Z5M3dG_AKnjKkWwOg935-27" style="edgeStyle=orthogonalEdgeStyle;rounded=0;orthogonalLoop=1;jettySize=auto;html=1;" edge="1" parent="1" source="Z5M3dG_AKnjKkWwOg935-26" target="Z5M3dG_AKnjKkWwOg935-10">
          <mxGeometry relative="1" as="geometry" />
        </mxCell>
        <mxCell id="Z5M3dG_AKnjKkWwOg935-26" value="CLOUDWATCH&lt;div&gt;MONITOR&lt;/div&gt;" style="rounded=0;whiteSpace=wrap;html=1;" vertex="1" parent="1">
          <mxGeometry x="850" y="495" width="120" height="60" as="geometry" />
        </mxCell>
        <mxCell id="Z5M3dG_AKnjKkWwOg935-28" style="edgeStyle=orthogonalEdgeStyle;rounded=0;orthogonalLoop=1;jettySize=auto;html=1;entryX=1;entryY=0;entryDx=0;entryDy=52.5;entryPerimeter=0;" edge="1" parent="1" source="Z5M3dG_AKnjKkWwOg935-26" target="Z5M3dG_AKnjKkWwOg935-14">
          <mxGeometry relative="1" as="geometry">
            <Array as="points">
              <mxPoint x="910" y="723" />
            </Array>
          </mxGeometry>
        </mxCell>
        <mxCell id="Z5M3dG_AKnjKkWwOg935-29" value="CLOUDWATCH: permitira realizar el monitoreo central de la solución:&lt;div&gt;cloudwatch+ Lambda rastreará metricas entre ellos tiempos de ejecución.&lt;/div&gt;&lt;div&gt;cloudwatch + RDS: Permitirá monitorear latencias de consultas, uso de recursos.&lt;/div&gt;&lt;div&gt;cloudwatch+ API Gateway: Permitirá monitorear latencia de respuestas, tráfico y errores.&lt;/div&gt;" style="text;html=1;align=center;verticalAlign=middle;whiteSpace=wrap;rounded=0;" vertex="1" parent="1">
          <mxGeometry x="980" y="450" width="210" height="150" as="geometry" />
        </mxCell>
      </root>
    </mxGraphModel>
  </diagram>
</mxfile>
